# xmcd
#
# Track frame offsets: 
#        150
#        16950
#        51082
#        67958
#        85801
#        105190
#        131242
#        146435
#        162450
#        180149
#        193863
#        214703
#        238277
#        254459
#        272924
#        292877
#
# Disc length: 4193 seconds
#
# Revision: 0
# Processed by: cddbd v1.5.2PL0 Copyright (c) Steve Scherf et al.
# Submitted via: ExactAudioCopy v0.95b3
#
DISCID=e4105f10
DTITLE=Various Artist - 25th Anniversary Sactown Metro Blues
DYEAR=2005
DGENRE=Blues
TTITLE0=Mick Martin and The Blues Rockers - Got to Play the Blues
TTITLE1=GG Amos - What Have I Done Wrong
TTITLE2=Richie Barron - Rahter Have the Green Than the Blues
TTITLE3=Gayiel Von and Witness This! - I'm A Woman
TTITLE4=Mama Z and Hot Buttered Blues - Groove On
TTITLE5=Mark Herin and Mere Mortals - Early in the Mornin'
TTITLE6=Marta Gee - Just One Word
TTITLE7=Lisa Phenix - Bad Blues
TTITLE8=Hucklebucks - Hip Shakin' Woman
TTITLE9=Gail Jo and The Criminals of Love - Appointment With the Blues
TTITLE10=Derek Washington - Mother In-Law Blues
TTITLE11=Mick Martin and the Blues Rockers - Don't Give Up On Me
TTITLE12=Mama Z and Hot Buttered Blues - Sweet Lovin' Mama
TTITLE13=Riche Barron - Gold Country Blues
TTITLE14=Gail Jo and The Criminals Of Love - Criminal Of Love
TTITLE15=Hucklebucks - You Won't Listen
EXTD=
EXTT0=
EXTT1=
EXTT2=
EXTT3=
EXTT4=
EXTT5=
EXTT6=
EXTT7=
EXTT8=
EXTT9=
EXTT10=
EXTT11=
EXTT12=
EXTT13=
EXTT14=
EXTT15=
PLAYORDER=
